<?xml version="1.0" encoding="utf-8"?>
<!-- Generator: Adobe Illustrator 21.0.2, SVG Export Plug-In . SVG Version: 6.00 Build 0)  -->
<svg version="1.1" id="Layer_1" xmlns="http://www.w3.org/2000/svg" xmlns:xlink="http://www.w3.org/1999/xlink" x="0px" y="0px"
	 viewBox="0 0 110 110" style="enable-background:new 0 0 110 110;" xml:space="preserve">
<style type="text/css">
	.st0{fill:#99A4AE;}
	.st1{fill:#FFFFFF;}
	.st2{fill:#FBE158;}
	.st3{fill:#059BBF;}
	.st4{fill:#4AC3AF;}
	.st5{fill:#FA5655;}
	.st6{fill:#CFD3D4;}
	.st7{fill:#84462D;}
	.st8{fill:#9C6144;}
	.st9{fill:#6FDAF1;}
	.st10{fill:#9CE5F4;}
</style>
<g id="Artboard">
</g>
<g id="Multicolor">
	<circle class="st0" cx="55" cy="55" r="55"/>
	<g>
		<rect x="37" y="27" class="st1" width="50" height="60"/>
		<g>
			<path class="st2" d="M65.7,73c0,4.4,3.6,8,8,8s8.4-3.6,8-8c-0.4-4.5-3.9-8-8-8C69.3,65,65.7,68.6,65.7,73z"/>
			<path class="st3" d="M65.7,73c0,4.4,3.6,8,8,8c3.4,0,6.2-2.1,7.4-5l-14.8-6.2C66,70.8,65.7,71.9,65.7,73z"/>
			<path class="st4" d="M65.7,73c0,2.8,1.5,5.3,3.7,6.7l4.3-6.8l-7.4-3.1C65.9,70.8,65.7,71.9,65.7,73z"/>
			<path class="st5" d="M66.4,69.8l7.4,3.1V65C70.4,65,67.6,67,66.4,69.8z"/>
		</g>
		<rect x="77" y="40" class="st4" width="4" height="18"/>
		<rect x="69.7" y="48" class="st4" width="4" height="10"/>
		<g>
			<circle class="st6" cx="60.3" cy="68.2" r="1.5"/>
			<rect x="46.7" y="67.7" class="st6" width="10" height="1"/>
		</g>
		<g>
			<circle class="st6" cx="60.3" cy="73.3" r="1.5"/>
			<rect x="46.7" y="72.8" class="st6" width="10" height="1"/>
		</g>
		<g>
			<circle class="st6" cx="60.3" cy="78.5" r="1.5"/>
			<rect x="46.7" y="78" class="st6" width="10" height="1"/>
		</g>
		<path class="st7" d="M39.7,58L28.9,68.8c-1.3,1.3-3.5,1.3-4.9,0s-1.3-3.5,0-4.9l10.8-10.8C36.1,55.1,37.8,56.8,39.7,58z"/>
		<path class="st8" d="M37,55.8l-13,13c-1.3-1.3-1.3-3.5,0-4.8l10.8-10.8C35.5,54.1,36.2,55,37,55.8z"/>
		<path class="st1" d="M47.4,60.1c-8,0-14.5-6.5-14.5-14.5s6.5-14.5,14.5-14.5s14.5,6.5,14.5,14.5S55.4,60.1,47.4,60.1z"/>
		<path class="st6" d="M47.4,31.1c8,0,14.5,6.5,14.5,14.5s-6.5,14.5-14.5,14.5c-8,0-14.5-6.6-14.5-14.5
			C32.9,37.6,39.4,31.1,47.4,31.1 M47.4,29.1c-9.1,0-16.5,7.4-16.5,16.5s7.4,16.5,16.5,16.5s16.5-7.4,16.5-16.5S56.5,29.1,47.4,29.1
			L47.4,29.1z"/>
		<circle class="st9" cx="47.4" cy="45.6" r="11.6"/>
		<path class="st10" d="M47.4,34c-6.4,0-11.6,5.2-11.6,11.6c0,3.2,1.3,6,3.3,8.1l16.3-16.3C53.4,35.3,50.6,34,47.4,34z"/>
	</g>
</g>
</svg>
