<?xml version="1.0" encoding="utf-8"?>
<!-- Generator: Adobe Illustrator 21.0.2, SVG Export Plug-In . SVG Version: 6.00 Build 0)  -->
<svg version="1.1" id="Layer_1" xmlns="http://www.w3.org/2000/svg" xmlns:xlink="http://www.w3.org/1999/xlink" x="0px" y="0px"
	 viewBox="0 0 110 110" style="enable-background:new 0 0 110 110;" xml:space="preserve">
<style type="text/css">
	.st0{fill:#99A4AE;}
	.st1{fill:#E2E4E5;}
	.st2{fill:#FFFFFF;}
	.st3{fill:#CFD3D4;}
	.st4{fill:#9CE5F4;}
	.st5{fill:#C9F2F8;}
	.st6{fill:#DF2C2C;}
</style>
<g id="Artboard">
</g>
<g id="Multicolor">
	<circle class="st0" cx="55" cy="55" r="55"/>
	<g>
		<g>
			<path class="st1" d="M80.3,34.7c-2-2-5-1.9-6.9,0l6.9,6.9C82.3,39.5,82.1,36.5,80.3,34.7z"/>
		</g>
		<g>
			<path class="st2" d="M73.4,34.6l3.5,3.5l3.4-3.4C78.5,32.7,75.4,32.7,73.4,34.6z"/>
		</g>
		<path class="st3" d="M76.9,41.5l1.7-1.7l-3.4-3.4L73.5,38C74.7,39.1,75.8,40.2,76.9,41.5z"/>
		<path class="st3" d="M55,31c1.4,0,2.7,0.1,4,0.3V28h-8v3.3C52.3,31.1,53.6,31,55,31z"/>
		<g>
			<circle class="st2" cx="55" cy="59" r="28"/>
		</g>
		<g>
			<circle class="st4" cx="55" cy="59.2" r="23"/>
		</g>
		<g>
			<path class="st5" d="M32,59.2c0,12.7,10.3,23,23,23v-46C42.3,36.2,32,46.5,32,59.2z"/>
		</g>
		<g>
			<path class="st6" d="M55,53c-3.5-8-13-5.5-13,3.6C42.2,64.8,55,71,55,71s12.8-6.2,13-14.4C68,47.5,58.5,46,55,53z"/>
		</g>
		<g>
			<path class="st1" d="M63,29H47v-2.1c0-1.5,1.2-2.9,2.8-2.9h10.5c1.5,0,2.8,1.4,2.8,2.9V29z"/>
		</g>
		<g>
			<path class="st2" d="M55,24h-5.2c-1.5,0-2.8,1.4-2.8,2.9V29h8V24z"/>
		</g>
	</g>
</g>
</svg>
