<?xml version="1.0" encoding="utf-8"?>
<!-- Generator: Adobe Illustrator 21.0.2, SVG Export Plug-In . SVG Version: 6.00 Build 0)  -->
<svg version="1.1" id="Layer_1" xmlns="http://www.w3.org/2000/svg" xmlns:xlink="http://www.w3.org/1999/xlink" x="0px" y="0px"
	 viewBox="0 0 110 110" style="enable-background:new 0 0 110 110;" xml:space="preserve">
<style type="text/css">
	.st0{fill:#99A4AE;}
	.st1{fill:#F0F1F1;}
	.st2{fill:#40C9E7;}
	.st3{fill:#FFFFFF;}
	.st4{fill:#6FDAF1;}
	.st5{fill:#84462D;}
	.st6{fill:#D4A263;}
	.st7{fill:#EDBC7C;}
</style>
<g id="Artboard">
</g>
<g id="Multicolor">
	<circle class="st0" cx="55" cy="55" r="55"/>
	<g>
		<path class="st1" d="M87,85c0,1.1-0.9,2-2,2H41c-1.1,0-2-0.9-2-2V41c0-1.1,0.9-2,2-2h44c1.1,0,2,0.9,2,2V85z"/>
		<rect x="43" y="43" class="st2" width="40" height="32"/>
		<path class="st3" d="M71,69c0,1.1-0.9,2-2,2H25c-1.1,0-2-0.9-2-2V25c0-1.1,0.9-2,2-2h44c1.1,0,2,0.9,2,2V69z"/>
		<rect x="27" y="27" class="st2" width="40" height="32"/>
		<g>
			<polygon class="st4" points="44,45 62,27 27,27 27,53.4 35.6,43 35.6,43 39,39 39,39 39,39 			"/>
		</g>
		<polygon class="st5" points="59,31 38,59 67,59 67,42.2 		"/>
		<polygon class="st1" points="59,39 61.9,43.1 64.8,39.2 59,31 53.1,38.8 56.1,43.1 		"/>
		<polygon class="st6" points="39,39 27,53.4 27,59 55.7,59 		"/>
		<path class="st3" d="M49,33c0,1.1-0.9,2-2,2H35c-1.1,0-2-0.9-2-2c0-1.2,1.2-2.5,3.3-1.8c1.1-1.4,2.8-2.2,4.7-2.2s3.6,0.9,4.7,2.2
			C47.8,30.5,49,31.8,49,33z"/>
		<polygon class="st7" points="44,45 30,59 27,59 27,53.4 35.7,43 39,47 42.3,43 		"/>
		<polygon class="st3" points="39,47 42.3,43 39,39 35.7,43 		"/>
	</g>
</g>
</svg>
