<?xml version="1.0" encoding="utf-8"?>
<!-- Generator: Adobe Illustrator 21.0.2, SVG Export Plug-In . SVG Version: 6.00 Build 0)  -->
<svg version="1.1" id="Layer_1" xmlns="http://www.w3.org/2000/svg" xmlns:xlink="http://www.w3.org/1999/xlink" x="0px" y="0px"
	 viewBox="0 0 110 110" style="enable-background:new 0 0 110 110;" xml:space="preserve">
<style type="text/css">
	.st0{fill:#99A4AE;}
	.st1{fill:#3E3E3F;}
	.st2{fill:#FACB1B;}
	.st3{fill:#FFFFFF;}
	.st4{fill:#FBE158;}
	.st5{fill:#5B5C5F;}
</style>
<g id="Artboard">
</g>
<g id="Multicolor">
	<circle class="st0" cx="55" cy="55" r="55"/>
	<g>
		<path class="st1" d="M77,23l-6.4,6.4c-0.7,0.7-0.8,1.8-0.2,2.6l-15.6,7.6l-2.8,17l1.3,1.3l17-2.8L78,39.5c0.8,0.6,1.9,0.5,2.6-0.2
			l6.4-6.4L77,23z"/>
		<path class="st2" d="M70.4,31.9l-15.6,7.6l-2.8,17l1.3,1.3l17-2.8L78,39.5C77.9,39.4,70.5,32,70.4,31.9z"/>
		<path class="st1" d="M44,76.9v-14h-2v14c-2.3,0.5-4,2.5-4,4.9c0,2.8,2.2,5,5,5s5-2.2,5-5C48,79.4,46.3,77.4,44,76.9z"/>
		<path class="st1" d="M42,32.9v23h2v-23c2.3-0.5,4-2.5,4-4.9c0-2.8-2.2-5-5-5s-5,2.2-5,5C38,30.4,39.7,32.5,42,32.9z"/>
		<path class="st3" d="M79,79v2.9c-14.8-0.5-25.5-4.2-31-10.6c-2.5-2.9-3.5-6-3.9-8.3H47v-8h-3.1c-1-15.9-8.2-21.3-12.9-23.1V28h-8
			v8h8v-1.9c4.1,1.8,9.9,6.9,10.9,20.9H39v8h3.1c0.4,2.6,1.5,6.1,4.4,9.6c5.9,7,16.9,10.8,32.5,11.4V87h8v-8H79z"/>
		<path class="st4" d="M70.4,31.9l-15.6,7.6l-2.8,17l0.7,0.7l21.5-21.5C72.4,33.9,70.5,32,70.4,31.9z"/>
		<path class="st5" d="M74.2,35.8L82,28l-5-5l-6.4,6.4c-0.7,0.7-0.8,1.8-0.2,2.6C70.5,32,72.4,33.9,74.2,35.8z"/>
	</g>
</g>
</svg>
