<?xml version="1.0" encoding="utf-8"?>
<!-- Generator: Adobe Illustrator 21.0.2, SVG Export Plug-In . SVG Version: 6.00 Build 0)  -->
<svg version="1.1" id="Layer_1" xmlns="http://www.w3.org/2000/svg" xmlns:xlink="http://www.w3.org/1999/xlink" x="0px" y="0px"
	 viewBox="0 0 110 110" style="enable-background:new 0 0 110 110;" xml:space="preserve">
<style type="text/css">
	.st0{fill:#99A4AE;}
	.st1{fill:#F0F1F1;}
	.st2{fill:#FFFFFF;}
	.st3{fill:#40C9E7;}
	.st4{fill:#5B5C5F;}
	.st5{fill:#E2E4E5;}
	.st6{fill:#3E3E3F;}
	.st7{fill:#21B2D1;}
	.st8{fill:#818284;}
</style>
<g id="Artboard">
</g>
<g id="Multicolor">
	<circle class="st0" cx="55" cy="55" r="55"/>
	<g>
		<path class="st1" d="M87,81c0,1.1-0.9,2-2,2H25c-1.1,0-2-0.9-2-2V41c0-1.1,0.9-2,2-2h22v-2c0-1.1,0.9-2,2-2h36c1.1,0,2,0.9,2,2V81
			z"/>
		<path class="st2" d="M49,35c-1.1,0-2,0.9-2,2v2H25c-1.1,0-2,0.9-2,2v40c0,0.3,0.1,0.6,0.2,0.9L70.1,35H49z"/>
		<path class="st2" d="M41,39H27v-3c0-0.6,0.4-1,1-1h12c0.6,0,1,0.4,1,1V39z"/>
		<path class="st3" d="M83,46c0,0.6-0.4,1-1,1H72c-0.6,0-1-0.4-1-1v-6c0-0.6,0.4-1,1-1h10c0.6,0,1,0.4,1,1V46z"/>
		<circle class="st4" cx="33" cy="45" r="2"/>
		<rect x="29" y="35" class="st5" width="2" height="4"/>
		<rect x="33" y="35" class="st5" width="2" height="4"/>
		<rect x="37" y="35" class="st5" width="2" height="4"/>
		<rect x="23" y="51" class="st6" width="64" height="28"/>
		<polygon class="st4" points="23,51 23,79 26.1,79 54.1,51 		"/>
		<circle class="st2" cx="59" cy="63" r="16"/>
		<circle class="st7" cx="59" cy="63" r="12"/>
		<path class="st3" d="M59,51c-6.6,0-12,5.4-12,12c0,3.3,1.4,6.4,3.6,8.5l17-17C65.4,52.4,62.3,51,59,51z"/>
		<path class="st8" d="M39,69c0,1.1-0.9,2-2,2s-2-0.9-2-2v-4c0-1.1,0.9-2,2-2s2,0.9,2,2V69z"/>
	</g>
</g>
</svg>
